<?xml version="1.0" encoding="utf-8"?>
<!-- Generator: Adobe Illustrator 15.0.2, SVG Export Plug-In . SVG Version: 6.00 Build 0)  -->
<!DOCTYPE svg PUBLIC "-//W3C//DTD SVG 1.1//EN" "http://www.w3.org/Graphics/SVG/1.1/DTD/svg11.dtd">
<svg version="1.1" id="Layer_1" xmlns="http://www.w3.org/2000/svg" xmlns:xlink="http://www.w3.org/1999/xlink" x="0px" y="0px"
	 width="772.973px" height="772.973px" viewBox="0 0 772.973 772.973" enable-background="new 0 0 772.973 772.973"
	 xml:space="preserve">
<symbol  id="New_Symbol" viewBox="-368.317 -368.317 736.634 736.633">
	<path id="path13156_3_" fill="#FFFFFF" stroke="#002561" stroke-width="0.7" d="M367.967,0.005
		c0-203.22-164.74-367.972-367.973-367.972c-203.221,0-367.961,164.752-367.961,367.972c0,203.222,164.74,367.961,367.961,367.961
		C203.227,367.966,367.967,203.227,367.967,0.005z"/>
	<path id="path13158_3_" fill="#002561" d="M354.601-0.479c0-196.097-158.945-355.055-355.055-355.055
		c-196.096,0-355.042,158.958-355.042,355.055c0,196.083,158.946,355.055,355.042,355.055
		C195.655,354.575,354.601,195.604,354.601-0.479"/>
	<path id="path13160_3_" fill="#FFFFFF" d="M-279.579-1.524c0-154.196,125.003-279.199,279.199-279.199
		c154.197,0,279.213,125.003,279.213,279.199c0,154.21-125.016,279.213-279.213,279.213
		C-154.576,277.688-279.579,152.686-279.579-1.524"/>
	<path fill="none" d="M318.999-3.222c0-176.455-143.045-319.5-319.5-319.5c-176.455,0-319.5,143.045-319.5,319.5"/>
	
		<text transform="matrix(0.71 -0.9921 -0.8132 -0.582 -289.8164 -184.0918)" fill="#FFFFFF" font-family="'BritannicEFBold'" font-size="63">s</text>
	
		<text transform="matrix(0.8443 -0.8806 -0.7218 -0.6921 -263.5825 -220.8467)" fill="#FFFFFF" font-family="'BritannicEFBold'" font-size="63">o</text>
	
		<text transform="matrix(0.9659 -0.7453 -0.6109 -0.7917 -226.5684 -258.8994)" fill="#FFFFFF" font-family="'BritannicEFBold'" font-size="63">c</text>
	
		<text transform="matrix(1.0413 -0.6357 -0.521 -0.8535 -187.8545 -287.8496)" fill="#FFFFFF" font-family="'BritannicEFBold'" font-size="63">i</text>
	
		<text transform="matrix(1.1004 -0.5268 -0.4318 -0.902 -165.8267 -301.6768)" fill="#FFFFFF" font-family="'BritannicEFBold'" font-size="63">é</text>
	
		<text transform="matrix(1.1584 -0.3829 -0.3139 -0.9495 -126.3481 -320.3457)" fill="#FFFFFF" font-family="'BritannicEFBold'" font-size="63">t</text>
	
		<text transform="matrix(1.1976 -0.2327 -0.1908 -0.9816 -85.9238 -333.5625)" fill="#FFFFFF" font-family="'BritannicEFBold'" font-size="63">é</text>
	
		<text transform="matrix(1.2142 -0.1189 -0.0975 -0.9952 -43.644 -341.1592)" fill="#FFFFFF" font-family="'BritannicEFBold'" font-size="63"> </text>
	
		<text transform="matrix(1.2198 0.0198 0.0162 -0.9999 -22.1401 -344.1152)" fill="#FFFFFF" font-family="'BritannicEFBold'" font-size="63">G</text>
	
		<text transform="matrix(1.2071 0.177 0.1451 -0.9894 29.0469 -343.085)" fill="#FFFFFF" font-family="'BritannicEFBold'" font-size="63">é</text>
	
		<text transform="matrix(1.1716 0.3401 0.2788 -0.9603 72.4922 -336.6875)" fill="#FFFFFF" font-family="'BritannicEFBold'" font-size="63">n</text>
	
		<text transform="matrix(1.1141 0.4971 0.4074 -0.9132 119.4014 -322.6777)" fill="#FFFFFF" font-family="'BritannicEFBold'" font-size="63">é</text>
	
		<text transform="matrix(1.0334 0.6484 0.5315 -0.8471 159.625 -304.7891)" fill="#FFFFFF" font-family="'BritannicEFBold'" font-size="63">r</text>
	
		<text transform="matrix(0.9323 0.7869 0.645 -0.7642 203.1348 -276.9453)" fill="#FFFFFF" font-family="'BritannicEFBold'" font-size="63">a</text>
	
		<text transform="matrix(0.8264 0.8974 0.7356 -0.6774 236.7891 -248.2158)" fill="#FFFFFF" font-family="'BritannicEFBold'" font-size="63">l</text>
	
		<text transform="matrix(0.7083 0.9933 0.8142 -0.5806 265.0234 -217.3945)" fill="#FFFFFF" font-family="'BritannicEFBold'" font-size="63">e</text>
	<path fill="none" d="M-320.001-3.222c0,176.454,143.045,319.5,319.5,319.5c176.455,0,319.5-143.046,319.5-319.5"/>
	
		<text transform="matrix(1.1701 0.3454 0.2831 -0.9591 -109.5347 272.7734)" fill="#FFFFFF" font-family="'BritannicEFBold'" font-size="72">P</text>
	
		<text transform="matrix(1.2098 0.1575 0.1291 -0.9916 -62.6211 286.707)" fill="#FFFFFF" font-family="'BritannicEFBold'" font-size="72">A</text>
	
		<text transform="matrix(1.2194 -0.0367 -0.0301 -0.9995 -19.2256 292.9648)" fill="#FFFFFF" font-family="'BritannicEFBold'" font-size="72">R</text>
	
		<text transform="matrix(1.2046 -0.1932 -0.1583 -0.9874 33.2324 290.6797)" fill="#FFFFFF" font-family="'BritannicEFBold'" font-size="72">I</text>
	
		<text transform="matrix(1.1733 -0.3342 -0.274 -0.9617 57.5195 287.5781)" fill="#FFFFFF" font-family="'BritannicEFBold'" font-size="72">S</text>
	
		<use xlink:href="#SG"  width="531" height="531" x="-265.5" y="-265.5" transform="matrix(1 0 0 1 0.4985 -1.2217)" overflow="visible"/>
</symbol>
<symbol  id="SG" viewBox="-265.5 -265.5 531 531">
	<path fill="#E80000" d="M265.5,0c0,146.635-118.867,265.499-265.5,265.499c-146.633,0-265.5-118.864-265.5-265.499"/>
	<path d="M-265.5-10.5c0-140.833,118.867-255,265.5-255c146.633,0,265.5,114.167,265.5,255"/>
</symbol>
<use xlink:href="#New_Symbol"  width="736.634" height="736.633" x="-368.317" y="-368.317" transform="matrix(1 0 0 -1 404.1553 373.7046)" overflow="visible"/>
</svg>
